<?xml version="1.0" encoding="utf-8"?>
<!-- Generator: Adobe Illustrator 25.4.0, SVG Export Plug-In . SVG Version: 6.00 Build 0)  -->
<svg version="1.1" id="Layer_1" xmlns="http://www.w3.org/2000/svg" xmlns:xlink="http://www.w3.org/1999/xlink" x="0px" y="0px"
	 viewBox="0 0 521 354" style="enable-background:new 0 0 521 354;" xml:space="preserve">
<style type="text/css">
	.st0{fill:#FFFFFF;}
</style>
<polygon points="521,354 0,353 0,0 521,1 "/>
<path class="st0" d="M278,58H160.4c-18.3,0-33.2,14.8-33.2,33.1l-0.2,126c0,9.3,7.5,16.8,16.8,16.8h107.3c12.4,0,20.5-13,15.1-24.1
	l-1.6-3.4c-2.8-5.8-8.7-9.5-15.1-9.5H177c-9.3,0-16.9-7.6-16.8-17l0.7-75.6c0.1-9.1,7.5-16.5,16.6-16.6L253,87"/>
<path class="st0" d="M439.9,101.1H307.7c-10.2,0-18.5,8.3-18.5,18.5l-0.2,139c0,10.2,8.3,18.5,18.5,18.5h102.9
	c13.7,0,22.6-14.3,16.6-26.6l0,0c-3.1-6.4-9.6-10.4-16.6-10.4h-69.8c-10.3,0-18.6-8.4-18.5-18.7l0.7-72.2
	c0.1-10.1,8.2-18.2,18.3-18.3l73.9-0.8"/>
</svg>
